<svg xmlns="http://www.w3.org/2000/svg" viewBox="0 0 134.04 154.74"><defs><style>.cls-1{fill:#fdfdfd;}.cls-2{fill:#fdfefd;}.cls-3{fill:#9cc91d;}.cls-4{fill:#eae6da;}.cls-5{fill:#f3efe9;}.cls-6{fill:#181714;}.cls-7{fill:#618a08;}.cls-8{fill:#aecd46;}.cls-9{fill:#85b320;}.cls-10{fill:#76aa0a;}.cls-11{fill:#537605;}.cls-12{fill:#1f3b02;}.cls-13{fill:#81b504;}.cls-14{fill:#8fc10f;}.cls-15{fill:#6a911c;}.cls-16{fill:#b9b8af;}.cls-17{fill:#96c02c;}.cls-18{fill:#659e04;}.cls-19{fill:#7ea91c;}.cls-20{fill:#76a615;}.cls-21{fill:#8dbd16;}.cls-22{fill:#5d9301;}.cls-23{fill:#b3da2a;}.cls-24{fill:#dcdcc7;}.cls-25{fill:#a1cf1a;}.cls-26{fill:#bbde32;}.cls-27{fill:#a9d421;}.cls-28{fill:#bee136;}.cls-29{fill:#670d0c;}.cls-30{fill:#02884a;}.cls-31{font-size:16.7px;font-family:MyriadPro-Regular, Myriad Pro;}.cls-32{letter-spacing:-0.01em;}.cls-33{letter-spacing:-0.01em;}.cls-34{letter-spacing:0em;}.cls-35{letter-spacing:-0.02em;}</style></defs><g id="Layer_2" data-name="Layer 2"><g id="Layer_1-2" data-name="Layer 1"><path class="cls-1" d="M102,154.74H0V0H69.39Q68.2,5.61,67,11.23l-.59.06H66c-4.64-1.21-8.85-3.47-14.2-2.35-3.27.68-6.08,1.55-7.56,4.06-2.39,4.07-4.12,8.52-7.58,11.91l-3.4-2.45L30.78,16.9c-3.27,2.67-3.86,9.66-1.27,13.45l2.55,5.36-1.73,6-.18,2.45v.18l-.32,3.25V58.9l-6.11,5.37-5.37,6.47c-3,.21-6.09.59-9.14.55-1.16,0-2.26-1.2-3.47-1.39-.92-.15-1.95.43-2.93.68a10.92,10.92,0,0,0,1.73,2.06,14.33,14.33,0,0,0,3,1.22L1,78l.42.85,5.12-.92c.36.21.72.42,1.09.62l-1.34.66a.4.4,0,0,0-.29.26C2.86,81.58,2.74,81.77,3.4,84l1.9-1.18v3.9l6.56-4.3L22,75.67H22L23.64,75l3.65-3,4.85-2.8,1-1.11c2.64.38,2.52,3,3.68,4.57.93,2.2,1.87,4.39,2.8,6.58l.57.75,0,0,2.49,4.54,4.19,5.34,5.78,1.84L52.76,94l0,1.77c-1,4.28-2,8.54-2.88,12.85-.55,2.83-.76,5.72-1.12,8.59l2.31,12.51c-1.38,1-1.12,2-.08,3v5.15l-2.52,1.92-7.53,5.4c-1,.85-2,1.71-3.47,3l4.62,1.92c.21,2.14.92,3.84,3.45,3.8a16.93,16.93,0,0,0,2.51-.44c4.53.25,8.43-1,11.28-4.78l.45-.47a.77.77,0,0,0,.2-.5c1.91-1.2,3.91-2.28,5.69-3.66A3.7,3.7,0,0,0,67,141.36,56.38,56.38,0,0,0,65.9,135l-.21-1-2.91-6.61,1.72-7.1-.38-3.58.57-1.78c2-3.33,4-6.64,5.9-10,2.15-3.78,5.61-4,7.84-.28,1,1.65,1.86,3.37,2.79,5.06l3.66,5.78,1.92,4.75c.34,1.6.69,3.19,1,4.78-.24.8-.28,2.15-.74,2.31-1.85.66-1.38,1.82-1,3.07l-.87,2.34-.84,2.46-.11,3.54.49,6.06,5.91,4.07.69.49.14.15.21,0,9,4.58Z"/><path class="cls-2" d="M134,11.9V154.74H108l2.92-1.22,5-1.61-3-4.36a18.62,18.62,0,0,0-12.37-8.36l-.8-1.13c-1-.84-2.85-1.4-1-3.12l.75-1.47c-.13-1.44-.27-2.87-.41-4.31,3.07-2.86,1-6.32,1.09-9.53l.09-5.37c.57-6.85-2-13-4.5-19.05-.36-1.53-.43-3.21-1.15-4.54-1.48-2.75-3.31-5.31-5-7.94l1.85-3.56c5.8-2.79,6.3-8.29,7-13.7L99,51.76l0-1.14,0-1.26.18-6.5,0,0c1.47-2.28,2.83-4.64,4.45-6.81,1.34-1.81,3-3.4,4.47-5.09.2-.19.4-.39.59-.59l.6-.6,3.66-4.2c1.57-1.43,3.22-2.78,4.71-4.3,1.62-1.67,3.08-3.48,4.61-5.23l4.83-2.2C129.67,14.38,131.88,13.25,134,11.9Z"/><path class="cls-1" d="M71.17,0h50.42c-.77,2.26-2,4.5-2.18,6.8-.21,3.38-1.93,5.59-4.14,7.7-.7.67-1.35,1.39-2,2.08l-6.39,3.34L91.36,28.09c-1.73-1-3.54-1.93-5.18-3.08-3.65-2.55-7.22-5.22-10.83-7.85.12-1.06.21-2.13.36-3.19.42-2.88.42-5.68-1.56-8.1Z"/><path class="cls-3" d="M113.24,16.58c.68-.69,1.33-1.41,2-2.08,2.21-2.11,3.93-4.32,4.14-7.7.14-2.3,1.41-4.54,2.18-6.8h1.19V7.25c1.36-1.9,2.52-3.67,3.87-5.27.35-.42,1.32-.33,2-.47,0,.7.19,1.56-.14,2a27.85,27.85,0,0,1-2.7,3c-2.54,2-4.8,4.24-5.54,7.64-.12.54-1.08.89-1.65,1.34-1,.29-1.94.64-2.93.85A22.1,22.1,0,0,1,113.24,16.58Z"/><path class="cls-4" d="M71.17,0l3,5.87c-.46,2-1,3.89-1.36,5.85-.25,1.23-.29,2.5-.43,3.75h0L67,13.09h0l0-1.85Q68.19,5.62,69.39,0Z"/><path class="cls-5" d="M125.81,6.5a27.85,27.85,0,0,0,2.7-2.95c.33-.48.11-1.34.14-2-.68.14-1.65.05-2,.47-1.35,1.6-2.51,3.37-3.87,5.27V0H134V10.71l-5.93.63A9.43,9.43,0,0,1,129.36,9c.57-.61,1.71-.72,2.19-1.36a8.89,8.89,0,0,0,1-2.71,9.17,9.17,0,0,0-2.76-.06A31.43,31.43,0,0,0,125.81,6.5Z"/><path class="cls-3" d="M128.11,11.34l5.93-.63V11.9c-2.16,1.35-4.37,2.48-7,2Z"/><path class="cls-6" d="M110.87,153.52,108,154.74H102L100.7,154l5-1.28Z"/><path class="cls-7" d="M81.22,109.65c-.93-1.69-1.79-3.41-2.79-5.06-2.23-3.67-5.69-3.5-7.84.28-1.92,3.37-3.93,6.68-5.9,10a5.37,5.37,0,0,0-4.6,3l.47.79,3.56-2c.12,1.19.25,2.38.38,3.58-1.51-.1-3-.29-4.55-.24a7.78,7.78,0,0,0-2.26.81c.37.6.66,1.65,1.14,1.75,2.65.57,3.52,2.45,4,4.78L65.69,134a4.9,4.9,0,0,0-2.82,4.11l0,.58c-1.37-1.81-2.76-3.6-4.07-5.45-.17-.24.1-.81.25-1.74l2.12,2.92a7.13,7.13,0,0,0-1-7.84c-1.94-1.84-4.49-3.34-4.18-6.63,0-.08-.51-.2-.78-.3l0-1.76c0-.19,0-.37,0-.56,3.16-2.23,6.63-4.18,7.68-8.36l3-3c2.78-1,3.89-3.4,4.74-6a32.77,32.77,0,0,1,4.85-.06,30.81,30.81,0,0,1,4.63,1.25L81.26,103c0,.2,0,.39,0,.59h0v.61l.58.57c0,1.39,0,2.79,0,4.18Z"/><path class="cls-8" d="M36.61,24.9c3.46-3.39,5.19-7.84,7.58-11.91,1.48-2.51,4.29-3.38,7.56-4.06,5.35-1.12,9.56,1.14,14.2,2.35l.48.58.6,1.22h0c1,1.15,2,2.29,3,3.44l-3.57.74-.61.58-2.36-1.79C60.6,10.22,54.8,11.8,50,10.79c-.12.36-.14,1.11-.43,1.24-4,1.71-5.24,5.71-7.24,9-1.26,2.07-1.76,4.62-2.6,7l-2.42,1.76Z"/><path class="cls-9" d="M40.92,145.21l7.53-5.4h5l.56.2.67.35,1.67.11,3.16.39.27,0H60l-1.9,2.57c-3,3.22-5.38,7.19-10,8.43v-1.8l-4.75-1.22L45,146.11Z"/><path class="cls-10" d="M55.16,117.84l0,1.76-1.79,1.21a28.87,28.87,0,0,0-2.27-2.16,20.25,20.25,0,0,0-2.33-1.4c.36-2.87.57-5.76,1.12-8.59.84-4.31,1.91-8.57,2.88-12.85L65.8,97.64,70.59,100c-.85,2.57-2,4.94-4.74,6,.26-2.79.34-5.68-3.15-6.35a27.47,27.47,0,0,0-8.61-.48c-.81.11-1.28,2.88-1.9,4.42a22.16,22.16,0,0,0-.56,3.08c-.1,2.27.14,4.57-.13,6.8C51,117.67,51,117.81,55.16,117.84Z"/><path class="cls-11" d="M65.8,97.64,52.74,95.81c0-.59,0-1.18,0-1.77a22.09,22.09,0,0,1,2.41.83C61.36,97.94,67.37,96.4,70,91c0-.37,0-.74,0-1.11L78.21,88c-.43.56-.87,1.11-1.28,1.68q-1.4,1.88-2.78,3.76c-1.27,4.69-1.27,4.68-6,4.19A22.44,22.44,0,0,0,65.8,97.64Z"/><path class="cls-12" d="M70,91c-2.59,5.38-8.6,6.92-14.79,3.85A22.09,22.09,0,0,0,52.76,94c0-.77-.11-1.55-.16-2.33l8.6-.9Z"/><path class="cls-13" d="M6.52,77.89l-5.12.92L1,78l6.58-4.1a14.33,14.33,0,0,1-3-1.22,10.92,10.92,0,0,1-1.73-2.06c1-.25,2-.83,2.93-.68,1.21.19,2.31,1.38,3.47,1.39,3,0,6.09-.34,9.14-.55,0,.23,0,.45,0,.68l-3,3a14.88,14.88,0,0,0-2.79.61C10.56,75.89,8.55,76.92,6.52,77.89Z"/><path class="cls-4" d="M29.51,30.35c-2.59-3.79-2-10.78,1.27-13.45l2.43,5.56a17.36,17.36,0,0,1-.05,4.08C32.71,28.4,32.46,30.77,29.51,30.35Z"/><path class="cls-14" d="M23.73,64.27l6.11-5.37,1.28-3,1.5,4.23.6,1.18-1.77,2.38-1.14.7-1.84,3.48-1.78,2.37-.58.62-1.2-4.79Z"/><path class="cls-11" d="M61.2,90.81l-8.6.9-5.78-1.84h8.5l-2.9-3.82c-2,2.12-3.34-.38-5-.36.5-.54.92-1.36,1.53-1.55a14.85,14.85,0,0,1,3.22-.25L57,87.48l.57.57,1.18.64Z"/><path class="cls-15" d="M58.13,143.42l1.9-2.57.16,0h.16c1.53,1.6,2.12.59,2.53-.91l0,0c.38-.4.77-.79,1.15-1.18h0L65.9,135A56.38,56.38,0,0,1,67,141.36,3.7,3.7,0,0,1,65.65,144c-1.78,1.38-3.78,2.46-5.69,3.66Z"/><path class="cls-16" d="M29.51,30.35c2.95.42,3.2-2,3.65-3.81a17.36,17.36,0,0,0,.05-4.08l3.4,2.44c.24,1.61.47,3.22.7,4.83l-4.2,5.35-1,.63Z"/><path class="cls-7" d="M58.13,143.42,60,147.7a.77.77,0,0,1-.2.5l-.45.47c-2.85,3.75-6.75,5-11.28,4.78l.06-1.6C52.75,150.61,55.12,146.64,58.13,143.42Z"/><path class="cls-17" d="M31.45,63.67l1.77-2.38c1.21-.63,2.24-.94,2.49,1,0,.31.68.55,1,.81,0,1.49-.28,3.06.11,4.43s1.47,2.23,2.24,3.33l1.81,3.52-.1.59-4-2.35c-1.16-1.57-1-4.19-3.68-4.57-.59-1,2.06-3-1-3.2l-.63-.61A5.12,5.12,0,0,1,31.45,63.67Z"/><path class="cls-18" d="M85.21,132.68l.87-2.34,1.09-.58c.92.38,2.07,1.3,2.71,1A19.33,19.33,0,0,0,93.7,128l-1.52,6,3.31,3.51L92,136.92l-3.56-.62C87,135.36,87.8,132.52,85.21,132.68Z"/><path class="cls-15" d="M48.74,117.25a20.25,20.25,0,0,1,2.33,1.4,28.87,28.87,0,0,1,2.27,2.16c-.41,3,.7,6.32-1.75,8.94h-.54Z"/><path class="cls-19" d="M90.66,148.81l-5.91-4.07,3.63-2.5,5.33,3.58,1.78,3-3.79.65-.21,0-.14-.15Z"/><path class="cls-15" d="M47.46,85.69c1.62,0,3,2.48,5,.36l2.9,3.82h-8.5l-4.19-5.34Z"/><path class="cls-10" d="M87.84,125c-.35-1.59-.7-3.18-1-4.78.33-1.18.65-2.36,1-3.54,1.74,2.28,3.54,4.38,6.77,2.36.07,0,.19,0,.29,0l.07.07-.19.71a.85.85,0,0,0-.35.27l-.12.74L91.33,125h0l-.56,0C89.82,121.86,88.82,124.32,87.84,125Z"/><path class="cls-15" d="M91.7,149.43l3.79-.65c1,.62,1.87,1.32,2.88,1.84,2.34,1.2,4.76,2.59,6.47-1,.08-.17.86,0,1.32,0l-.49,3.06-5,1.28Z"/><path class="cls-20" d="M47.46,85.69l-4.83-1.16L40.14,80l3.18,1.54h1.73a24.7,24.7,0,0,1,3.75.65,25.79,25.79,0,0,1,3.41,1.7,14.85,14.85,0,0,0-3.22.25C48.38,84.33,48,85.15,47.46,85.69Z"/><path class="cls-10" d="M11.86,82.43,5.3,86.73v-3.9c.23-1.13.45-2.27.68-3.4a.4.4,0,0,1,.29-.26l2,.58,1.21,0,2.52.2Z"/><path class="cls-17" d="M32.62,60.11l-1.5-4.23-1.28,3c0-3.78,0-7.55,0-11.33l.48-2.39.58,0,.54,5.93,2.37,5.39.8,2.7Z"/><path class="cls-10" d="M81.22,109.65l.63-.74,2.38-1.19,1.18.6,1.2,1.18,1.2.59h.57l1.18,2.38h0l-1.77.59-2.38-1.19-.25-.13.25.13,0,1.76-.55,1.78Z"/><path class="cls-11" d="M11.86,82.43l.18-2.5-2.52-.2,3.55-1.8,1.77-1.12h0l2.94-1.22,4.23.09Z"/><path class="cls-11" d="M62.78,127.34c-.43-2.33-1.3-4.21-4-4.78-.48-.1-.77-1.15-1.14-1.75A7.78,7.78,0,0,1,60,120c1.52,0,3,.14,4.55.24C63.93,122.6,63.35,125,62.78,127.34Z"/><path class="cls-15" d="M48.09,151.85l-.06,1.6a16.93,16.93,0,0,1-2.51.44c-2.53,0-3.24-1.66-3.45-3.8l1.27-1.26,4.75,1.22Z"/><path class="cls-7" d="M22,75.67l-4.23-.09,1.77-2.39L22,70.25,24,72.56l2.07-1.72.58-.62.6,0V72l-3.65,3L22,75.68Z"/><path class="cls-7" d="M51.05,129.76h.54c.77,4.42,2.7-.45,4.47.94l-1.48,6.19-1.78-.59c-.75-1.12.84-3.44-1.83-3.55C49.93,131.71,49.67,130.71,51.05,129.76Z"/><path class="cls-9" d="M43.32,81.53,40.14,80l0,0-.57-.75c-.93-2.19-1.87-4.38-2.8-6.58l4,2.35.73,1.81C42.16,78.35,44.92,79.13,43.32,81.53Z"/><path class="cls-21" d="M22,70.25l-2.39,2.94L18.4,71.42l0-.68,5.37-6.47,1.18,1.78Z"/><path class="cls-18" d="M13.07,77.93l-3.55,1.8-1.21,0c-.23-.42-.47-.83-.7-1.24-.37-.2-.73-.41-1.09-.62,2-1,4-2,6.11-2.87a14.88,14.88,0,0,1,2.79-.61c-.19.8-.38,1.59-.56,2.39h0Z"/><path class="cls-22" d="M27.29,72V70.26c.39-.81.78-1.61,1.18-2.41l1.84-3.48,1.17-.14.63.61,0,4.31Z"/><path class="cls-7" d="M43.34,148.83l-1.27,1.26-4.62-1.92c1.46-1.25,2.46-2.11,3.47-3l4.07.9Z"/><path class="cls-9" d="M88.38,142.24l-3.63,2.5q-.24-3-.49-6.06H86c.19.4.38.79.56,1.19Z"/><path class="cls-15" d="M51,132.74c2.67.11,1.08,2.43,1.83,3.55.21.85.43,1.69.65,2.54l0,1h-5L51,137.89Z"/><path class="cls-8" d="M32.06,35.71l1-.63a6,6,0,0,1,.52,2.11c-.21,1.71-.65,3.38-1,5.06v1.2l-1.73,0-.57-1.78Z"/><path class="cls-19" d="M87.84,125c1-.64,2-3.1,2.92,0l-.63,1.76h0l-1.77,2.39-1.19.62-1.09.58c-.36-1.25-.83-2.41,1-3.07C87.56,127.11,87.6,125.76,87.84,125Z"/><path class="cls-20" d="M85.21,132.68c2.59-.16,1.83,2.68,3.2,3.62L86,138.68h0l-1.63-3.55Z"/><path class="cls-18" d="M64.12,116.66l-3.56,2-.47-.79a5.37,5.37,0,0,1,4.6-3Z"/><path class="cls-13" d="M6,79.43c-.23,1.13-.45,2.27-.68,3.4L3.4,84C2.74,81.77,2.86,81.58,6,79.43Z"/><path class="cls-19" d="M84.88,115.43c.19-.59.37-1.18.55-1.78l2.35,3-1,3.54Z"/><path class="cls-22" d="M65.9,135c-.61,1.24-1.22,2.48-1.82,3.72l-1.21-.63A4.9,4.9,0,0,1,65.69,134Z"/><path class="cls-23" d="M30.9,43.47l1.73,0,1.69.9-.18.63-2.1.25H30.89l-.58,0c-.06-.29-.11-.58-.16-.87v-.18Z"/><path class="cls-14" d="M32.14,69.15l0-4.31c3.08.19.43,2.22,1,3.2Z"/><path class="cls-22" d="M84.37,135.14,86,138.69H84.26C84.3,137.5,84.34,136.32,84.37,135.14Z"/><path class="cls-13" d="M7.61,78.51c.23.41.47.82.7,1.24l-2-.58Z"/><path class="cls-8" d="M30.15,44.32c.05.29.1.58.16.87l-.48,2.38C29.94,46.49,30,45.4,30.15,44.32Z"/><path class="cls-17" d="M30.9,43.47l-.75.67.18-2.45Z"/><path class="cls-24" d="M67,13.08l-.6-1.22c0-.19,0-.38,0-.57l.59-.06C67,11.85,67,12.46,67,13.08Z"/><path class="cls-11" d="M22,75.68,23.64,75Z"/><path class="cls-20" d="M39.61,79.19l.57.75Z"/><path class="cls-15" d="M59.31,148.67l.45-.47Z"/><path class="cls-15" d="M90.66,148.81l.69.49Z"/><path class="cls-4" d="M66.42,11.29c0,.19,0,.38,0,.57L66,11.28Z"/><path class="cls-9" d="M99,51.76l-.57,13.71L95.61,66.7V54.29l-.72-.06-1.78,5.28c-.4-1-.8-2-1.19-3l-2.34-5.37c0-.59,0-1.18,0-1.77,0-.2,0-.4,0-.6a11.34,11.34,0,0,0,4.29-6.64L88.37,44v-.59c1-.74,2.52-1.27,2.9-2.25,1.16-3,3.23-2.39,5.41-1.91H99l0,3.59,0,0c-.72,2.15-1.61,4.29-.18,6.5l0,1.26Z"/><path class="cls-20" d="M106.16,149.67c-.46,0-1.24-.18-1.32,0-1.71,3.55-4.13,2.16-6.47,1-1-.52-1.92-1.22-2.88-1.84l-1.78-3,5.84-1-2.93-4.37,3.84-1.22a18.62,18.62,0,0,1,12.37,8.36C110.92,149.25,108.81,150.3,106.16,149.67Z"/><path class="cls-18" d="M89.58,82.73c1.69,2.63,3.52,5.19,5,7.94.72,1.33.79,3,1.15,4.54-.59,0-1.29-.23-1.76,0-2.58,1.3-5,3.18-7.69,3.92-1.6.44-1.43,1-1.48,2l-1.76,0-1.76-.58c.7-1.58,1.47-3.14,2.1-4.75.69-1.8.85-4,2-5.39a7,7,0,0,0,1.25-6.54Z"/><path class="cls-19" d="M93.11,59.51l1.78-5.28.72.06V66.7l2.78-1.23c-.66,5.41-1.16,10.91-7,13.7L89,79.75h0v-3c.4-.56,1-1.08,1.13-1.68.32-2,.44-4,.64-6.06q.87-4.2,1.76-8.4l-.59-.6Z"/><path class="cls-7" d="M95.49,137.47,92.18,134l1.52-6c.79-3,1.57-6.07,2.36-9.1l4.17-4.65-.09,5.37c-.55.38-1.59.77-1.58,1.15,0,2.79.3,5.59.49,8.38.14,1.44.28,2.87.41,4.31a18.69,18.69,0,0,0-1.19-2.15,11.69,11.69,0,0,0-1.52-1.46,6.92,6.92,0,0,0-1.24,1.43c-.65,1.34-.66,2.42,1.27,2.66a6.33,6.33,0,0,1,1.93,1c-1.9,1.72,0,2.28,1,3.12Z"/><path class="cls-10" d="M100.23,114.26l-4.17,4.65-1.15.13-.07-.07-2.31-2.33c.39-1.18.78-2.37,1.18-3.56l.58,0a17.63,17.63,0,0,0,3.43.82c.3,0,1.1-1.45.9-1.89a35.49,35.49,0,0,0-2.53-4.27c0-.59,0-1.18,0-1.78,1.13-3,.37-6.1-2.12-7.66-.41-.26-1.34.33-2,.53H90.75l-6,2.36c0-1-.12-1.58,1.48-2C89,98.4,91.39,96.52,94,95.22c.47-.24,1.17,0,1.76,0C98.26,101.31,100.8,107.41,100.23,114.26Z"/><path class="cls-14" d="M128.11,11.34,127,13.87l-4.83,2.2-4.73,1.19,1.19-1.78c.57-.45,1.53-.8,1.65-1.34.74-3.4,3-5.6,5.54-7.64a31.43,31.43,0,0,1,3.94-1.67,9.17,9.17,0,0,1,2.76.06,8.89,8.89,0,0,1-1,2.71c-.48.64-1.62.75-2.19,1.36A9.43,9.43,0,0,0,128.11,11.34Z"/><path class="cls-7" d="M89,79.75l2.46-.58-1.85,3.56-3,1.19c-1.53.77-4,1.23-4.42,2.39-1.34,4.14-4.85,5.35-8,7.13q1.38-1.89,2.78-3.76c.41-.57.85-1.12,1.28-1.68l0,.06,0-.65c0-.55.06-1.11.08-1.67,4.23-1.55,6.22-5,7.71-9h3v3l-.22.77Z"/><path class="cls-3" d="M117.43,17.26l4.73-1.19c-1.53,1.75-3,3.56-4.61,5.23-1.49,1.52-3.14,2.87-4.71,4.3L109.13,28c-.59.4-1.18.8-1.78,1.19l-4.74.59c2.11-1.66,4.19-3.34,6.33-5a18.3,18.3,0,0,1,2.54-1.48c1.36-.73,2.74-1.43,4.11-2.15l-.29-.64H113l-.24-.66,2.91-1.41,1.81-1.19Z"/><path class="cls-16" d="M106.16,149.67c2.65.63,4.76-.42,6.67-2.12l3,4.36-5,1.61-5.2-.79C105.84,151.71,106,150.69,106.16,149.67Z"/><path class="cls-11" d="M95.49,137.47l4.17.59.8,1.13-3.84,1.22H89l3-3.5Z"/><path class="cls-20" d="M99.07,42.89c0-1.19,0-2.39,0-3.59q1.8-2.69,3.58-5.37h0l1.77-1.19,2.94-1.85.29,0,.28,0,.1.13c-1.5,1.68-3.13,3.27-4.47,5.08C101.9,38.25,100.54,40.61,99.07,42.89Z"/><path class="cls-11" d="M99.05,129.16c-.19-2.79-.44-5.59-.49-8.38,0-.38,1-.77,1.58-1.15C100.08,122.84,102.12,126.3,99.05,129.16Z"/><path class="cls-11" d="M98.71,134.94a6.33,6.33,0,0,0-1.93-1c-1.93-.24-1.92-1.32-1.27-2.66a6.92,6.92,0,0,1,1.24-1.43,11.69,11.69,0,0,1,1.52,1.46,18.69,18.69,0,0,1,1.19,2.15Z"/><path class="cls-20" d="M109.13,28l3.71-2.37-3.66,4.2-.13-.1C109.08,29.12,109.11,28.55,109.13,28Z"/><path class="cls-20" d="M98.91,49.36c-1.43-2.21-.54-4.35.18-6.5Z"/><path class="cls-20" d="M99,51.76l0-1.14Z"/><path class="cls-20" d="M109.18,29.8l-.6.6-.08-.09c.18-.21.36-.41.55-.61Z"/><path class="cls-20" d="M108.58,30.4c-.19.2-.39.4-.59.59l-.1-.12c.2-.19.4-.38.61-.56Z"/><path class="cls-17" d="M66.43,17.27,70,16.53l5.35.63C79,19.79,82.53,22.46,86.18,25c1.64,1.15,3.45,2.06,5.18,3.08l0,1.66-3,1.2-.46-1.58-.62.21L87.78,31l.59,5.35h-.59l-4.73-3-1.79-3L77.72,25l4.4-1.63s-.1-.32-.18-.6l-1.84.84-.53-2.25C77,22.85,76.85,23.14,77.69,25c-1.47-.59-3.14-.92-4.38-1.84C70.89,21.36,68.71,19.25,66.43,17.27Z"/><path class="cls-25" d="M91.33,29.75l0-1.66,15.49-8.17,6.39-3.34a22.1,22.1,0,0,0,2.45-.25c1-.21,2-.56,2.93-.85l-1.19,1.78h0c-.61.39-1.21.79-1.81,1.19l-2.91,1.41.24.66h2.34l.29.64c-1.37.72-2.75,1.42-4.11,2.15a18.3,18.3,0,0,0-2.54,1.48c-2.14,1.62-4.22,3.3-6.33,5h0c-3.36,2.68-7.54,1.43-11.26,2.37Zm18.19-9,.14.56,1.61-.33-.16-.65Z"/><path class="cls-24" d="M75.35,17.16,70,16.53c-1-1.15-2-2.29-3-3.44l5.32,2.38.25.14-.25-.14c.14-1.25.18-2.52.43-3.75.38-2,.9-3.9,1.36-5.85,2,2.42,2,5.22,1.56,8.1C75.56,15,75.47,16.1,75.35,17.16Z"/><path class="cls-22" d="M74.15,93.44c3.18-1.78,6.69-3,8-7.13.38-1.16,2.89-1.62,4.42-2.39a7,7,0,0,1-1.25,6.54c-1.12,1.42-1.28,3.59-2,5.39-.63,1.61-1.4,3.17-2.1,4.75l-1.21.58a30.81,30.81,0,0,0-4.63-1.25,32.77,32.77,0,0,0-4.85.06L65.8,97.64a22.44,22.44,0,0,1,2.32,0C72.88,98.12,72.88,98.13,74.15,93.44Z"/><path class="cls-11" d="M54.58,136.88l1.48-6.19c-1.77-1.39-3.7,3.48-4.47-.94,2.45-2.62,1.34-5.93,1.75-8.94l1.79-1.21c.27.1.79.22.78.3-.31,3.29,2.24,4.79,4.18,6.63a7.13,7.13,0,0,1,1,7.84L59,131.45c-.15.93-.42,1.5-.25,1.74,1.31,1.85,2.7,3.64,4.07,5.45l.06.06v1.17l0,0-1.21-.05-1.75-.57,0,0-3.53-.57Z"/><path class="cls-14" d="M55.16,117.84c-4.17,0-4.18-.17-3.66-4.41.27-2.23,0-4.53.13-6.8a22.16,22.16,0,0,1,.56-3.08c.64-.16,1.52-.12,1.89-.53,1.54-1.68,3-1,4.39,0,.89.6,1.69,1.33,2.59,1.91,1.54,1,1.49,1.77,0,2.84a9.84,9.84,0,0,0-1.74,2.33q-2.07,3.58-4.13,7.17C55.19,117.47,55.18,117.65,55.16,117.84Z"/><path class="cls-13" d="M59.33,110.11a9.84,9.84,0,0,1,1.74-2.33c1.48-1.07,1.53-1.86,0-2.84-.9-.58-1.7-1.31-2.59-1.91-1.44-1-2.85-1.69-4.39,0-.37.41-1.25.37-1.89.53.62-1.54,1.09-4.31,1.9-4.42a27.47,27.47,0,0,1,8.61.48c3.49.67,3.41,3.56,3.15,6.35l-3,3Z"/><path class="cls-10" d="M59.33,110.11l3.55-1.19c-1.05,4.18-4.52,6.13-7.68,8.36Q57.26,113.7,59.33,110.11Z"/><path class="cls-15" d="M84.23,107.72l-2.38,1.19c0-1.39,0-2.79,0-4.18l1.19,0,4.71,1.8-4.2.27.69.89Z"/><path class="cls-10" d="M83,104.75l-1.19,0-.58-.57v-.61h0c0-.2,0-.39,0-.59l-1.19-1.78,1.21-.58,1.76.58c-.19,1.89,1.09,1.83,2.36,1.79Z"/><path class="cls-11" d="M62.87,138.06l1.21.63H62.9l-.06-.06Z"/><path class="cls-15" d="M81.26,103c0,.2,0,.39,0,.59C81.26,103.35,81.26,103.16,81.26,103Z"/><path class="cls-15" d="M81.25,103.55v0Z"/><path class="cls-26" d="M39.73,28c.84-2.34,1.34-4.89,2.6-7,2-3.27,3.23-7.27,7.24-9,.29-.13.31-.88.43-1.24,4.8,1,10.6-.57,13.46,5.27l-5.8-2.88,3.43,7.06,6.32,6.82-5.11-.29h0c-2.84-2.16-5.88-1.31-8.9-.56h-.59c.64-3.26,1.51-3.75,5.21-2.77l.12-2,1.71-1.09-.44-.58-1.87,1.07-9.47,2.38-.6.6h0l-.59.59h0L45.69,25l0,0c-.79.49-1.55,1.05-2.38,1.46C42.13,27,40.92,27.48,39.73,28Z"/><path class="cls-27" d="M62.3,26.77l5.11.29c-2.52-2.73-4.42-4.78-6.32-6.82.4-.09.92-.39,1.2-.24,2.4,1.24,3.27.08,3.53-2.15l.61-.58c2.28,2,4.46,4.09,6.88,5.87,1.24.92,2.91,1.25,4.38,1.84l0,0,3.54,5.35c0,1.79,0,3.57,0,5.36a12.91,12.91,0,0,1-1.2,1.95c-.71.8-1.56,1.48-2.35,2.22h-3c0-.4,0-.81,0-1.21l.58-.59c1.45-4.3.15-8.16-3.26-10.06,1,3.1,2.13,6.3,3.21,9.51l-.6,0-1.14-.61c-.2-.4-.39-.8-.59-1.19L71.8,34.49l-.59-1.2-.62-.56-1.21-.58c-.68-2.92-3.17-2.64-5.29-3C63.7,28.18,61.17,28.88,62.3,26.77Zm8.33-.05.54-.76-1.74-1-.35.54Z"/><path class="cls-23" d="M39.73,28c1.19-.49,2.4-.93,3.55-1.49.83-.41,1.59-1,2.38-1.46a16.64,16.64,0,0,1-1.74,2.58,14.67,14.67,0,0,0-4.13,11.49c0,.67.74,1.32,1.13,2,0,.79,0,1.58,0,2.37l-.49,4c-.76-1.31-1.29-2.07-1.67-2.91-.86-1.87-1.89-2-3.19-.43l-3-1.79c.35-1.68.79-3.35,1-5.06a6,6,0,0,0-.52-2.11l4.2-5.35Z"/><path class="cls-23" d="M65.82,17.85c-.26,2.23-1.13,3.39-3.53,2.15-.28-.15-.8.15-1.2.24l-3.43-7.06,5.8,2.88Z"/><path class="cls-12" d="M56.36,138.68l3.53.57-.8.24a1.82,1.82,0,0,0,.16.22c.23-.13.45-.28.67-.43l1.75.57-1.32,1h-.16l-.16,0h-.28l-.27,0-3.16-.4-1.67-.11L54,140l-.56-.2,0-1Z"/><path class="cls-22" d="M56.32,140.48l3.16.4Z"/><path class="cls-15" d="M54,140l.67.35Z"/><path class="cls-14" d="M78.3,85.74c0,.56,0,1.12-.08,1.68l0,.64,0-.06L70,89.91c-.51-.38-1-1-1.55-1.09-2.33-.34-4.69-.6-7.05-.71a10,10,0,0,0-2.68.58l-1.18-.64L57,87.48l-4.76-3.59a25.79,25.79,0,0,0-3.41-1.7,24.7,24.7,0,0,0-3.75-.65V78.08a22.09,22.09,0,0,0,3.13.42,20.11,20.11,0,0,0,3-.41l1,0,.66.33.13.12.44.53,1.8,1.55.22,0,0,.22,2.71,1.24,0,0,.53.6.74.7,2.24.52,1.8,1.3c3,3.22,7.28,2.69,10.15.57l1.59-.73,1.39-.56Z"/><path class="cls-10" d="M58.72,88.69a10,10,0,0,1,2.68-.58c2.36.11,4.72.37,7.05.71.56.08,1,.71,1.55,1.09,0,.37,0,.74,0,1.11l-8.76-.21Z"/><path class="cls-10" d="M14.86,76.8c.18-.8.37-1.59.56-2.39l3-3,1.17,1.77L17.8,75.58Z"/><path class="cls-3" d="M32.62,60.11l2-.87c-.26-.89-.53-1.79-.8-2.7l5.94,2.38v.6l3.55,4.73-1.2.62h-.57c0-.19,0-.38,0-.57l-1.78-1.24-3,0c-.37-.26-1-.5-1-.81-.25-1.93-1.28-1.62-2.49-1Z"/><path class="cls-13" d="M22,70.25l2.95-4.2,1.2,4.79L24,72.56Z"/><path class="cls-13" d="M28.47,67.85c-.4.8-.79,1.6-1.18,2.41l-.6,0Z"/><path class="cls-13" d="M31.48,64.23l-1.17.14,1.14-.7A5.12,5.12,0,0,0,31.48,64.23Z"/><path class="cls-10" d="M57,87.48l.57.57Z"/><path class="cls-22" d="M60.35,140.81l1.32-1,1.21.05C62.47,141.4,61.88,142.41,60.35,140.81Z"/><path class="cls-22" d="M62.9,138.7h1.16c-.38.39-.77.78-1.15,1.18C62.91,139.48,62.9,139.09,62.9,138.7Z"/><path class="cls-27" d="M36.76,63.09l3,0,1.78,1.24c0,.19,0,.38,0,.57h0L38.81,65c1.49,5,5.73,4.43,9.24,5.22l.9,1.11-2.08,1.27c-2.08-.73-4.15-1.5-6.26-2.14-.42-.13-1,.24-1.5.38-.77-1.1-1.88-2.11-2.24-3.33S36.77,64.58,36.76,63.09Z"/><path class="cls-7" d="M41.55,76.77,40.82,75c0-.2.07-.39.1-.59h3l1.92-1,1.21,0,4.51-.17v3h5.39l-6.5,1.15Z"/><path class="cls-23" d="M43.89,74.38h-3l-1.81-3.52c.51-.14,1.08-.51,1.5-.38,2.11.64,4.18,1.41,6.26,2.14l.15.8-1.21,0Z"/><path class="cls-11" d="M94.91,119l1.15-.13c-.79,3-1.57,6.06-2.36,9.1a19.33,19.33,0,0,1-3.82,2.77c-.64.28-1.79-.64-2.71-1l1.19-.62,1.77-2.39h0L91.32,125h0c2.09-.62,2.69-2.28,2.92-4.21l.12-.73a.33.33,0,0,0,.35-.28Z"/><path class="cls-22" d="M92,136.92l-3,3.5-2.45-.55c-.18-.4-.37-.79-.56-1.19l2.42-2.38Z"/><path class="cls-10" d="M86.55,139.87l2.45.55h7.62l2.93,4.37-5.84,1-5.33-3.58Z"/><path class="cls-21" d="M92.53,116.64,94.84,119c-.1,0-.22,0-.29,0-3.23,2-5-.08-6.77-2.36l-2.35-3c0-.59,0-1.17,0-1.76h0l2.38,1.19Z"/><path class="cls-7" d="M94.25,120.76c-.23,1.93-.83,3.59-2.92,4.21Z"/><path class="cls-7" d="M91.32,125l-1.19,1.78.63-1.76Z"/><path class="cls-21" d="M94.72,119.75a.33.33,0,0,1-.35.28A.8.8,0,0,1,94.72,119.75Z"/><path class="cls-22" d="M41.55,76.77l8.87.65.71.67a20.11,20.11,0,0,1-3,.41,22.09,22.09,0,0,1-3.13-.42v3.46H43.32C44.92,79.13,42.16,78.35,41.55,76.77Z"/><path class="cls-27" d="M39.74,58.92,33.8,56.54l-2.37-5.38c.2-2,.41-4,.61-5.93l2.1-.25.18-.63-1.69-.9v-1.2l3,1.79a32.61,32.61,0,0,0,.29,5.15,26.48,26.48,0,0,0,1.85,5.35,23.67,23.67,0,0,0,2,3.18C39.75,58.12,39.74,58.52,39.74,58.92Z"/><path class="cls-8" d="M32,45.23c-.2,2-.41,4-.61,5.93l-.54-5.94Z"/><path class="cls-20" d="M92.53,116.64l-4.74-3.56,1.77-.59.77.21-.77-.22c-.39-.79-.79-1.58-1.18-2.38l2.38.6,2.95,2.38Z"/><path class="cls-15" d="M90.76,110.7l-2.38-.6H87.8c0-.2,0-.39,0-.58v0Z"/><path class="cls-15" d="M86.61,109.5l-1.2-1.18,0,0,2.36,1.2v0Z"/><path class="cls-20" d="M86.61,109.5h1.17c0,.19,0,.38,0,.58Z"/><path class="cls-15" d="M85.41,108.32l-1.18-.6h0l1.2.58Z"/><path class="cls-21" d="M85.41,111.89l-.25-.13.25.13Z"/><path class="cls-10" d="M13.07,77.93l1.77-1.12Z"/><path class="cls-22" d="M56.36,138.68l-2.91.15c-.22-.85-.44-1.69-.65-2.54l1.78.59Z"/><path class="cls-7" d="M90.13,126.75l-1.77,2.39Z"/><path class="cls-21" d="M83.05,33.33l4.73,3-.6,2.45,1,.16.18-2.61h0l3-3c.37.94.73,1.89,1.22,3.16l2.93-.78h2.38l-1.19,3.58c-2.18-.48-4.25-1.06-5.41,1.91-.38,1-1.9,1.51-2.9,2.25l-4,.31c2.9-2.63,1.38-4.45-.11-6.27C85.18,35.72,84,34.56,83.05,33.33Z"/><path class="cls-14" d="M84.22,37.49c1.49,1.82,3,3.64.11,6.27l4-.31V44l-1.18,1.79L85.39,47l-1.16.63-1.78,1.2c-.2-1.2-.41-2.4-.61-3.59V44.05l1.78-6Z"/><path class="cls-14" d="M93.11,59.51l-1.2.52c-3.08-.17-5.68.57-7.1,3.65L83.11,65c-.16-1.44-.9-3.23-.31-4.23s2.52-1.46,3.9-2.17l-1.87-1.43,1.16,0,1.8.62c1.89,1.66,1.83,1.63,2.61-.39.16-.4,1-.53,1.52-.79Z"/><path class="cls-27" d="M87.79,57.72,86,57.1l1.85-2.66-3.61-6.82L85.39,47l1.81,0L89,48.8l.57.6,0,1.77Z"/><path class="cls-21" d="M89,48.8,87.2,47c0-.4,0-.79,0-1.18L88.37,44l5.48-1.88a11.34,11.34,0,0,1-4.29,6.64Z"/><path class="cls-3" d="M87.79,57.72l1.78-6.55q1.19,2.69,2.35,5.37c-.53.26-1.36.39-1.52.79C89.62,59.35,89.68,59.38,87.79,57.72Z"/><path class="cls-13" d="M96.68,39.29c.39-1.19.79-2.39,1.19-3.58l4.74-1.78Q100.83,36.61,99,39.3Z"/><path class="cls-3" d="M89,48.8h.59c0,.2,0,.4,0,.6Z"/><path class="cls-13" d="M85.4,103c-1.27,0-2.55.1-2.36-1.79l1.76,0,6-2.36a7.49,7.49,0,0,1-1.24,1.48C88.18,101.23,86.77,102.08,85.4,103Z"/><path class="cls-13" d="M92.5,60.63q-.89,4.2-1.76,8.4l-2.95.61-1.21-1.21c-.32-3.39,2.71-4.76,4.21-7.05Z"/><path class="cls-10" d="M87.79,69.64,90.74,69c-.2,2-.32,4-.64,6.06-.09.6-.73,1.12-1.13,1.68H86c0-.4,0-.79,0-1.19.21-1,.43-2,.64-3,1.23-.05,2.39-.15,1.17-1.8Z"/><path class="cls-11" d="M92.5,60.63l-1.71.75c-2,.13-3.86.44-4.37,2.95-.09.46-1,.76-1.49,1.14l-.12-1.79c1.42-3.08,4-3.82,7.1-3.65Z"/><path class="cls-14" d="M85.4,103c1.37-.89,2.78-1.74,4.11-2.69a7.49,7.49,0,0,0,1.24-1.48h1.18a38.6,38.6,0,0,1,3.48,4.11c.53.8.47,2,.67,3v1.78l-.62,2.39-7.73-3.56L83,104.75Z"/><path class="cls-21" d="M87.74,106.55l7.73,3.56c-.39,1-.79,2-1.18,3l-.58,0-2.95-2.38-3-1.21-2.36-1.2-1.2-.58-.69-.89Z"/><path class="cls-13" d="M94.29,113.06c.39-1,.79-2,1.18-3l.62-2.39A35.49,35.49,0,0,1,98.62,112c.2.44-.6,1.9-.9,1.89A17.63,17.63,0,0,1,94.29,113.06Z"/><path class="cls-13" d="M96.08,105.94c-.2-1-.14-2.22-.67-3a38.6,38.6,0,0,0-3.48-4.11c.69-.2,1.62-.79,2-.53C96.45,99.84,97.21,102.89,96.08,105.94Z"/><path class="cls-25" d="M86,75.59c0,.4,0,.79,0,1.19-1.49,3.91-3.48,7.41-7.71,9l-1.75-1.23a2.57,2.57,0,0,1,0-.48.47.47,0,0,1,.37-.16l.77-.61h-.06c3.54-1,5.76-4,5.34-7.3l.06-.89.64-.07Z"/><path class="cls-19" d="M89,79.75l-.22.77.22-.77Z"/><path class="cls-11" d="M78.25,88.06l0-.64Z"/><path class="cls-14" d="M102.61,33.93l-4.74,1.78H95.49l-1.1-2.06c7.3-.33,7.85-.59,8.21-3.89h0l4.74-.59,0,1.72-2.94,1.85-1.77,1.19Z"/><path class="cls-13" d="M107.32,30.88l0-1.72c.6-.39,1.19-.79,1.78-1.19,0,.58,0,1.15-.08,1.73-.19.2-.37.4-.55.61s-.41.37-.61.56l-.28,0Z"/><path class="cls-14" d="M115.63,18.45c.6-.4,1.2-.8,1.81-1.19C116.83,17.65,116.23,18.05,115.63,18.45Z"/><path class="cls-13" d="M102.61,33.92l1.77-1.19Z"/><path class="cls-14" d="M91.34,33.33l-3,3c-.2-1.78-.4-3.57-.59-5.35h.6l3-1.2c0,.8,0,1.59,0,2.38C91.34,32.53,91.34,32.93,91.34,33.33Z"/><path class="cls-3" d="M84.22,37.49l-.6.6-2.37-2.38c0-1.79,0-3.57,0-5.36l1.79,3C84,34.56,85.18,35.72,84.22,37.49Z"/><path class="cls-21" d="M77.69,25c-.84-1.84-.71-2.13,1.88-3.62l.53,2.25,1.84-.84c.08.28.19.59.18.6L77.72,25Z"/><path class="cls-14" d="M88.37,36.3l-.18,2.61-1-.16.6-2.45Z"/><path class="cls-21" d="M88.38,31h-.6l-.48-1.37.62-.21Z"/><path class="cls-3" d="M91.34,33.33c0-.4,0-.8,0-1.2,3.72-.94,7.9.31,11.26-2.37-.37,3.3-.92,3.56-8.22,3.89l1.1,2.06-2.93.78C92.07,35.22,91.71,34.27,91.34,33.33Z"/><path class="cls-14" d="M109.52,20.78l1.59-.42.16.65-1.61.33Z"/><path class="cls-4" d="M72.36,15.47l.25.14-.25-.14Z"/><path class="cls-28" d="M40.92,41.06c-.39-.65-1.09-1.3-1.13-2A14.67,14.67,0,0,1,43.92,27.6,16.64,16.64,0,0,0,45.66,25l0,0,1.17-.58h0l.59-.59h0l.6-.6,9.47-2.38.6.6-.12,2c-3.7-1-4.57-.49-5.21,2.77l-1.13.05C47,28.85,44,33,41.57,37.57c0,.15,0,.3,0,.45Z"/><path class="cls-14" d="M51.66,26.25l1.13-.05h.59c2.84,2.14,5.92.59,8.9.56h0c-1.13,2.11,1.4,1.41,1.79,2.36l-.6.53-7.2-.58L51.61,28Z"/><path class="cls-27" d="M62.28,26.77c-3,0-6.06,1.58-8.9-.56C56.4,25.46,59.44,24.61,62.28,26.77Z"/><path class="cls-23" d="M58.12,21.43l-.6-.6c.63-.35,1.25-.71,1.87-1.07l.44.58Z"/><path class="cls-23" d="M46.86,24.41,45.69,25Z"/><path class="cls-23" d="M47.45,23.81l-.59.59Z"/><path class="cls-23" d="M48.05,23.21l-.6.6Z"/><path class="cls-26" d="M39.75,57.72a23.67,23.67,0,0,1-2-3.18,26.48,26.48,0,0,1-1.85-5.35A32.61,32.61,0,0,1,35.59,44c1.3-1.58,2.33-1.44,3.19.43.38.84.91,1.6,1.67,2.91.22-1.75.35-2.85.49-4l1.16,0c0,1,0,2,0,3,0,.4,0,.8,0,1.2l.44,1.58.46-.06.29-1.52V47l1.22-.84,1,7.38,3,3.06c7,7.05,18.94,5.21,24.15-3.7.49-1.18,1-2.35,1.48-3.52l.44-1.17c1.32-2.66,1-4.9-1.6-6.61,0-.17-.07-.34-.09-.51l1.85-1.24h3v3.57q-1.49,5-3,10.07l-2.94,4.81c-3.08,1.91-6,4.07-9.88,4.21-.69,0-1.35.7-2,1.07l-1.74,0L54.47,62l-1.67,0-1.19-.67L51,60.7l-.62-.59Zm4.12-5-.35-.5c-.21.18-.48.34-.58.57s.29.35.45.53Z"/><path class="cls-25" d="M77.7,43.45V39.88c.79-.74,1.64-1.42,2.35-2.22a12.91,12.91,0,0,0,1.2-1.95l2.37,2.38q-.9,3-1.78,6Z"/><path class="cls-14" d="M75.3,37.52c-1.08-3.21-2.17-6.41-3.21-9.51,3.41,1.9,4.71,5.76,3.26,10.06C75.33,37.89,75.31,37.7,75.3,37.52Z"/><path class="cls-13" d="M63.49,29.66l.6-.53c2.12.38,4.61.1,5.29,3h0l-1.22-.53Z"/><path class="cls-14" d="M70.63,26.72l-1.55-1.24.35-.54,1.74,1Z"/><path class="cls-13" d="M74.77,38.66c0,.4,0,.81,0,1.21h-.61l-.62-3,.06,0,1.14.61C74.72,37.89,74.75,38.27,74.77,38.66Z"/><path class="cls-13" d="M71.8,34.49,73,35.7l-.09.07-1.16-1.21Z"/><path class="cls-26" d="M74.77,38.66c0-.39,0-.77-.07-1.16l.6,0c0,.18,0,.37,0,.55Z"/><path class="cls-13" d="M73,35.7c.2.39.39.79.59,1.19l-.06,0-.62-1.16Z"/><path class="cls-13" d="M71.21,33.29l.59,1.2-.08.07c-.22-.38-.44-.76-.65-1.14Z"/><path class="cls-13" d="M69.38,32.15l1.21.58-.06.07-1.13-.66Z"/><path class="cls-13" d="M70.59,32.73l.62.56-.14.12-.54-.61Z"/><path class="cls-27" d="M42.1,43.45l-1.16,0c0-.79,0-1.58,0-2.37.23-1,.45-2,.67-3,.3.57.83,1.13.84,1.71A29.2,29.2,0,0,1,42.1,43.45Z"/><path class="cls-11" d="M59.92,139.28c-.22.15-.44.3-.67.43a1.82,1.82,0,0,1-.16-.22l.8-.24Z"/><path class="cls-6" d="M63.42,85.23l-1.8-1.3-2.24-.52c-.25-.23-.5-.46-.74-.7l-.53-.6,0,0L55.44,80.9l0-.22a1.7,1.7,0,0,1-.22,0l.59-1.4,3.54.42c.82-.07,2-.52,2.38-.15,2.41,2.55,3.57,1.22,4.27-1l3.91,1L65.82,80.9l-1.27,2.23L70,84.56a8.52,8.52,0,0,1-2.66,1.14A19.9,19.9,0,0,1,63.42,85.23Z"/><path class="cls-16" d="M83,75.08,83,76l-.68.22a1.55,1.55,0,0,1-.43,0l-.25-.14.26.13a5.42,5.42,0,0,0,0,.57c-1.41,2.17-2.82,4.35-4.24,6.52h.06l-.77.61a.47.47,0,0,0-.37.16l-1.38,1-1.59.73-.75-1.24a15.76,15.76,0,0,1,2.46-2.62c1.82-1.24,3.15-4.36,2.37-6.12l2-3.44,2.8,2Z"/><path class="cls-15" d="M51.13,78.09l-.71-.67,6.5-1.15,13.83-3-3,2.52-1.62.76-6.8,1.31L55.66,78l-2.77,0-.72.06Z"/><path class="cls-15" d="M72.82,84.56l.75,1.24c-2.87,2.12-7.17,2.65-10.15-.57a19.9,19.9,0,0,0,4,.47A8.52,8.52,0,0,0,70,84.56Z"/><path class="cls-24" d="M52.89,78.06l2.77,0c.05.4.09.8.13,1.2l-.59,1.4L53.4,79.1,53,78.57l-.13-.12A2.28,2.28,0,0,0,52.89,78.06Z"/><path class="cls-16" d="M55.44,80.9l2.71,1.24Z"/><path class="cls-16" d="M59.38,83.41l2.24.52Z"/><path class="cls-19" d="M75.16,85.07l1.38-1a2.57,2.57,0,0,0,0,.48Z"/><path class="cls-16" d="M58.11,82.11l.53.6Z"/><path class="cls-16" d="M53,78.57l.44.53Z"/><path class="cls-16" d="M52.89,78.06a2.28,2.28,0,0,1-.06.39l-.66-.33Z"/><path class="cls-27" d="M43.29,64.25l-3.55-4.73c1.35.86,2.61,2.14,4.08,2.51,3.14.79,6.39,1.1,9.6,1.61h0c-.95.41-1.92.79-2.85,1.25a7.65,7.65,0,0,0-1.2,1l1.06.8v3.57l-2.34-.58-2.41-1.8h0l1.57-.34.29-.91L43.3,64.88h0Z"/><path class="cls-23" d="M53.42,63.64c-3.21-.51-6.46-.82-9.6-1.61-1.47-.37-2.73-1.65-4.08-2.51v-.6c0-.4,0-.8,0-1.2l10.66,2.39.62.59.58.57c.39.41.79.81,1.19,1.22Z"/><path class="cls-23" d="M41.53,64.3l-1.78-1.24Z"/><path class="cls-27" d="M41.52,64.87H43.3c-.59,1.86-1.19.92-1.78,0Z"/><path class="cls-23" d="M43.29,64.87h-1.2l1.2-.62Z"/><path class="cls-23" d="M41.52,64.88c.59.92,1.19,1.86,1.78,0l4.23,1.72-.29.91-1.57.34L45,66.94l-.2.19.91.72,2.41,1.8a5.63,5.63,0,0,0,0,.58C44.54,69.44,40.3,70,38.81,65Z"/><path class="cls-14" d="M48.05,70.23a5.63,5.63,0,0,1,0-.58l2.34.58,1.11,3L47,73.41l-.15-.8L49,71.34Z"/><path class="cls-3" d="M51.53,73.24l-1.11-3V66.66c.55.32,1.37.51,1.6,1,.93,1.92,2.51,2.15,4.33,2v.6c-.64,3.32,2.14,5.25,5.89,3.33,3.95-2,8-1.87,12.09-2.06l-.85,1.11a1.57,1.57,0,0,0-.47.13l-1.26.5h-1l-13.83,3H51.53Z"/><path class="cls-14" d="M43.89,74.38l1.92-1Z"/><path class="cls-10" d="M89.56,112.48l.77.22-.77-.21Z"/><path class="cls-27" d="M74.33,71.5c-4.11.19-8.14,0-12.09,2.06-3.75,1.92-6.53,0-5.89-3.33a4.53,4.53,0,0,0,1.57.15c1.27-.37,2.51-.89,3.76-1.34-.75,1.44-.27,2,1.26,1.64a28.37,28.37,0,0,0,2.88-1c3.26-.36,4.77-2.69,5.94-5.37h0l2.53-1.15-.73-.6-1.77-.61a14.43,14.43,0,0,0,2.06-3.23,34.11,34.11,0,0,0,.87-5.16q1.48-5,3-10.07l4.14.6v1.18c-2.2,1.86-2.89,3.93-1.77,5.36v7.14l4.77-.58,1.87,1.43c-1.38.71-3.25,1.08-3.9,2.17s.15,2.79.31,4.23l0-.09-.66.54-4.67,4.31-1.32,1.08A1.93,1.93,0,0,0,76,71l-.58.5,0,0Z"/><path class="cls-23" d="M84.83,57.15l-4.77.58c.6-2.58,1.19-5.15,1.78-7.73,0-.19,0-.38,0-.56l.59-.63h0l1.78-1.2,3.61,6.82L86,57.1Z"/><path class="cls-25" d="M81.86,49.44c0,.18,0,.37,0,.56l-1.77.59c-1.12-1.43-.43-3.5,1.77-5.36.2,1.19.41,2.39.61,3.59h0Z"/><path class="cls-3" d="M87.19,45.83c0,.39,0,.78,0,1.18l-1.81,0Z"/><path class="cls-24" d="M77.75,69.74l4.67-4.31.66-.54,0,.09,1.7-1.3.12,1.79c-.82,3-1.63,6-2.45,8.92l-2.8-2c-.56,1-1.3,2.19-2,3.44-3-2.11-3,1.24-4.29,2.57l-2.45-1.26-1,2.4-3.91-1c-.7,2.25-1.86,3.58-4.27,1-.36-.37-1.56.08-2.38.15,0-.61,0-1.23,0-1.84l6.8-1.3,1.62-.77,3-2.52h1l1.26-.5a1.57,1.57,0,0,1,.47-.13l1.88-1.14,0,0L76,71a1.89,1.89,0,0,1,.48-.13Z"/><path class="cls-18" d="M82.48,74.39c.82-3,1.63-5.94,2.45-8.92.52-.38,1.4-.68,1.49-1.14.51-2.51,2.35-2.82,4.37-2.95-1.5,2.29-4.53,3.66-4.21,7.05-1,2.2-2,4.39-2.92,6.58l-.64.07Z"/><path class="cls-14" d="M83.66,75c1-2.19,2-4.38,2.92-6.58l1.21,1.21c0,.4,0,.79,0,1.18l-1.17,1.8c-.21,1-.43,2-.64,3Z"/><path class="cls-13" d="M86.61,72.62l1.17-1.8C89,72.47,87.84,72.57,86.61,72.62Z"/><path class="cls-21" d="M77.62,83.27c1.42-2.17,2.83-4.35,4.24-6.52l.42-.56L83,76C83.38,79.23,81.16,82.26,77.62,83.27Z"/><path class="cls-21" d="M76.91,83.87l.77-.61Z"/><path class="cls-13" d="M42.1,43.45a29.2,29.2,0,0,0,.33-3.72c0-.58-.54-1.14-.84-1.71,0-.15,0-.3,0-.45a23.29,23.29,0,0,0,2.67-1.89,36.78,36.78,0,0,0,2.62-3l.76.08a16.06,16.06,0,0,1-1.19,2.59c-2.28,3.33-3,7.09-3.15,11H42.12Z"/><path class="cls-27" d="M46.86,32.73a36.78,36.78,0,0,1-2.62,3,23.29,23.29,0,0,1-2.67,1.89C44,33,47,28.85,51.66,26.25c0,.58,0,1.15,0,1.72l-1.77,1.24L48,31.52h0Z"/><path class="cls-28" d="M43.28,46.4c.19-3.91.87-7.67,3.15-11a16.06,16.06,0,0,0,1.19-2.59H48l8.3-3.74,7.2.58,4.69,1.95c-.85.62-1.7,1.24-2.56,1.85l1.06-1.38,2.5,4.55-2.72.26a48.09,48.09,0,0,0-5.37,0A17.17,17.17,0,0,0,45.55,53.56l-1-7.38L43.3,47C43.3,46.81,43.29,46.61,43.28,46.4ZM61.62,32.58l-.85.64c.15.2.34.57.43.55a1.42,1.42,0,0,0,.76-.5C62,33.17,61.75,32.83,61.62,32.58Z"/><path class="cls-13" d="M56.29,29.08,48,32.82l0-1.29h0l1.81-2.31L51.61,28Z"/><path class="cls-5" d="M45.55,53.56A17.17,17.17,0,0,1,61.09,36.9a48.09,48.09,0,0,1,5.37,0l5.76,3,.66,1.19c0,.17.06.34.09.51a12.39,12.39,0,0,1-4.19,8.44L67.62,47l-.3-.53-.26-.52-1.23-1.3a22.65,22.65,0,0,0-2.32-1.14c-3.7-1.32-5.82-.71-9,2.61C52.23,48.42,52.16,52,54,55a27.37,27.37,0,0,0,2.31,2.87c-.56.17-1.18.57-1.67.46-2.07-.48-4.1-1.11-6.14-1.69Z"/><path class="cls-24" d="M48.5,56.62c2,.58,4.07,1.21,6.14,1.69.49.11,1.11-.29,1.67-.46,2.49.12,5.06.67,7.43.2,1.45-.29,2.6-2.14,3.88-3.29.58.11,1.29.48,1.71.27a31.46,31.46,0,0,0,3.32-2.11C67.44,61.83,55.46,63.67,48.5,56.62Z"/><path class="cls-4" d="M72.65,52.92A31.46,31.46,0,0,1,69.33,55c-.42.21-1.13-.16-1.71-.27.38-1.57.77-3.13,1.16-4.7A12.39,12.39,0,0,0,73,41.62c2.56,1.71,2.92,4,1.61,6.61l-.45,1.17Z"/><path class="cls-13" d="M74.72,53.52a34.11,34.11,0,0,1-.87,5.16,14.43,14.43,0,0,1-2.06,3.23c-1.56.93-3,2.46-4.69,2.67-4.58.61-9.26,1.25-13.69-.93h0l-.62-1.15v-.55l1.68,0,3.66,1.67,1.74,0a8.69,8.69,0,0,0,1.76.06c4-.57,8.36-.51,10.14-5.34Z"/><path class="cls-27" d="M71.78,58.33C70,63.16,65.64,63.1,61.64,63.67a8.69,8.69,0,0,1-1.76-.06c.67-.37,1.33-1,2-1.07C65.75,62.4,68.7,60.24,71.78,58.33Z"/><path class="cls-27" d="M58.14,63.65,54.48,62Z"/><path class="cls-27" d="M72.88,41.11l-.66-1.19,1.9,0h.61Z"/><path class="cls-28" d="M43.3,47.61,43,49.13l-.46.06-.44-1.58Z"/><path class="cls-28" d="M43.87,52.7l-.48.6c-.16-.18-.49-.44-.45-.53s.37-.39.58-.57Z"/><path class="cls-27" d="M43.3,47.61H42.11c0-.4,0-.8,0-1.2h1.16c0,.21,0,.41,0,.62Z"/><path class="cls-27" d="M52.8,61.94v.55c-.4-.41-.8-.81-1.19-1.22Z"/><path class="cls-24" d="M74.13,49.4l.45-1.17Z"/><path class="cls-27" d="M51,60.7l-.62-.59Z"/><path class="cls-26" d="M74.12,39.88l-1.9,0-5.76-3,2.72-.26-2.5-4.55-1.06,1.38c.86-.61,1.71-1.23,2.56-1.85l1.22.53,1.13.66.54.61c.21.39.43.77.65,1.15l1.16,1.21.62,1.16C73.71,37.91,73.91,38.9,74.12,39.88Z"/><path class="cls-29" d="M69.89,79.53l1-2.4,2.45,1.26c1.25-1.33,1.26-4.68,4.29-2.57.78,1.76-.55,4.88-2.37,6.12a15.76,15.76,0,0,0-2.46,2.62H70l-5.48-1.43,1.27-2.23Z"/><path class="cls-16" d="M59.28,77.82c0,.61,0,1.23,0,1.84l-3.54-.42c0-.4-.08-.8-.13-1.2Z"/><path class="cls-24" d="M82.28,76.19l-.42.56a5.42,5.42,0,0,1,0-.57h0A1.55,1.55,0,0,0,82.28,76.19Z"/><path class="cls-24" d="M81.86,76.18l-.26-.13.25.14Z"/><path class="cls-16" d="M67.7,75.75l-1.62.77Z"/><path class="cls-23" d="M53.41,63.65c4.43,2.18,9.11,1.54,13.69.93,1.65-.21,3.13-1.74,4.69-2.67l1.77.61-1.8,1.75h0l-5.94,5.37a28.37,28.37,0,0,1-2.88,1c-1.53.38-2-.2-1.26-1.64l4.16-2.38.13-.25-.14.25a36.34,36.34,0,0,1-4.67,0c-2.51-.32-4.13.52-4.81,3-1.82.16-3.4-.07-4.33-2-.23-.47-1.05-.66-1.6-1l-1.06-.8a7.65,7.65,0,0,1,1.2-1C51.49,64.44,52.46,64.06,53.41,63.65Z"/><path class="cls-27" d="M45.67,67.85l-.91-.72.2-.19.71.91Z"/><path class="cls-25" d="M65.84,66.66,61.68,69c-1.25.45-2.49,1-3.76,1.34a4.53,4.53,0,0,1-1.57-.15v-.6c.68-2.49,2.3-3.33,4.81-3a36.34,36.34,0,0,0,4.67,0Z"/><path class="cls-16" d="M75.36,71.47l-1.88,1.14.85-1.11Z"/><path class="cls-16" d="M73,72.74l-1.26.5Z"/><path class="cls-14" d="M65.82,69.64l5.94-5.37C70.59,67,69.08,69.28,65.82,69.64Z"/><path class="cls-14" d="M80.07,50.59,81.84,50c-.59,2.58-1.18,5.15-1.78,7.73Q80.07,54.16,80.07,50.59Z"/><path class="cls-14" d="M71.76,64.27l1.8-1.75.73.6Z"/><path class="cls-16" d="M77.75,69.74l-1.31,1.08Z"/><path class="cls-14" d="M83.08,64.89l-.66.54Z"/><path class="cls-16" d="M76,71l-.58.5Z"/><path class="cls-14" d="M81.86,49.44l.59-.63Z"/><path class="cls-14" d="M48,31.53l0,1.29h-.37l-.76-.08Z"/><path class="cls-14" d="M49.84,29.21,48,31.52Z"/><path class="cls-26" d="M61.62,32.58c.13.25.41.59.34.69a1.42,1.42,0,0,1-.76.5c-.09,0-.28-.35-.43-.55Z"/><path class="cls-30" d="M68.78,50.06c-.39,1.57-.78,3.13-1.16,4.7-1.28,1.15-2.43,3-3.88,3.29-2.37.47-4.94-.08-7.43-.2A27.37,27.37,0,0,1,54,55c-1.84-3-1.77-6.56.46-8.87,3.23-3.32,5.35-3.93,9-2.61a22.65,22.65,0,0,1,2.32,1.14l1.23,1.3.26.52.3.53Zm-3.52.62A4.45,4.45,0,0,0,61,45.92c-2.33-.14-4.63,2.41-4.7,5.22-.07,2.66,1.44,4.14,4.32,4.23C63.71,55.47,65.18,54,65.26,50.68Z"/><path class="cls-4" d="M67.06,45.94l-1.23-1.3Z"/><path class="cls-4" d="M67.62,47l-.3-.53Z"/><path class="cls-25" d="M65.83,66.66l.14-.25-.13.25Z"/><path class="cls-6" d="M65.26,50.68c-.08,3.29-1.55,4.79-4.62,4.69-2.88-.09-4.39-1.57-4.32-4.23.07-2.81,2.37-5.36,4.7-5.22A4.45,4.45,0,0,1,65.26,50.68Z"/><text class="cls-31" transform="translate(44.64 106.09) scale(0.98 1)">I<tspan class="cls-32" x="3.99" y="0">M</tspan><tspan class="cls-33" x="17.25" y="0">A</tspan><tspan class="cls-34" x="27.22" y="0">GE </tspan><tspan class="cls-35" x="-28.03" y="20.04">C</tspan><tspan x="-18.69" y="20.04">OMING SOON</tspan></text></g></g></svg>